<svg id="Capa_1" data-name="Capa 1" xmlns="http://www.w3.org/2000/svg" viewBox="0 0 196.75 95"><defs><style>.cls-1,.cls-3{fill:none;stroke:#724e94;stroke-linecap:round;stroke-miterlimit:10;}.cls-1{stroke-width:3px;}.cls-2{fill:#724e94;}.cls-3{stroke-width:2.5px;}</style></defs><path class="cls-1" d="M14.61,38.21C9.26,24.94,10.93,25,20.7,24.77H149.21"/><path class="cls-1" d="M195,42.91H176.53a1.4,1.4,0,0,1-1-.45l-6-6.62a1.39,1.39,0,0,1,1-2.32h17.58"/><path class="cls-2" d="M99.45,18.35c-.94,0-1.94-.75-1.94-2.84s1-2.84,1.94-2.84,1.94.75,1.94,2.84S100.39,18.35,99.45,18.35ZM100.56,16h0Z"/><path class="cls-2" d="M103.2,24.3c-.94,0-2-.75-2-2.84s1-2.83,2-2.83,1.94.74,1.94,2.83S104.13,24.3,103.2,24.3Zm1.11-2.36h0Z"/><path class="cls-2" d="M75.76,78.68l-.17,0c-1.37,0-2.22,1.41-2.22,3.7s.85,3.69,2.22,3.69l.17,0v0l4.43-7.39H75.76Z"/><path class="cls-2" d="M81.93,68.89a1,1,0,0,0-.17,0c-1.37,0-2.22,1.42-2.22,3.7s.85,3.7,2.22,3.7l.17,0h0l4.43-7.36H81.93Z"/><path class="cls-2" d="M93.47,59.09H89l-.16,0c-1.38,0-2.23,1.42-2.23,3.7s.85,3.7,2.23,3.7a.76.76,0,0,0,.16,0Z"/><path class="cls-1" d="M41,24.77l-21-18.24-1.19-1a12.9,12.9,0,0,0-7.14-3.08l-9-.91A1,1,0,0,0,1.68,3l15,21.74"/><path class="cls-1" d="M128.93,24.77l-9.24-8a31.35,31.35,0,0,0-17.38-7.5L99,8.92a1.52,1.52,0,0,0-1.4,2.37l9.14,13.23"/><path class="cls-3" d="M103.58,10.23l10,14.54"/><path class="cls-1" d="M136.2,56.76c5.43.25,10.81.43,16.05.54,6.44.13,38.74,2.43,42.71-11.4,1-3.41-.52-6.25-3.61-9.59-7.86-8.51-20.3-10.66-28.69-11.26"/><path class="cls-1" d="M63.72,50.34c8.81,1.2,20.39,2.52,33.18,3.68"/><path class="cls-1" d="M48.59,47.34c-9.13-1.75-16.46-3.48-22-5"/><path class="cls-1" d="M133,59.53l-24.3,21.06a51.59,51.59,0,0,1-28.6,12.34l-5.49.55a2.48,2.48,0,0,1-2.29-3.88L99.85,49.75a4.64,4.64,0,0,1,3.81-2h40a1.11,1.11,0,0,1,.73,2L133,59.53"/><line class="cls-1" x1="109.27" y1="48.26" x2="79.29" y2="91.66"/><line class="cls-1" x1="51.54" y1="36.72" x2="56.3" y2="36.72"/><line class="cls-1" x1="69.35" y1="36.72" x2="73.9" y2="36.72"/><line class="cls-1" x1="86.95" y1="36.72" x2="91.72" y2="36.72"/><line class="cls-1" x1="104.77" y1="36.72" x2="109.32" y2="36.72"/><line class="cls-1" x1="122.37" y1="36.72" x2="127.14" y2="36.72"/><line class="cls-1" x1="140.19" y1="36.72" x2="144.74" y2="36.72"/><path class="cls-1" d="M17.6,35.27H33.32a.44.44,0,0,1,.28.77l-14,12.15A20.29,20.29,0,0,1,8.33,53.05l-2.16.22a1,1,0,0,1-.9-1.53L16.1,36.06A1.83,1.83,0,0,1,17.6,35.27Z"/></svg>