<svg id="Capa_1" data-name="Capa 1" xmlns="http://www.w3.org/2000/svg" viewBox="0 0 75.7 58.62"><defs><style>.cls-1{fill:#fff;}</style></defs><path class="cls-1" d="M61.11,27.91a12.27,12.27,0,1,0-13.17,0,21.1,21.1,0,0,0-6.8,3.71,25.44,25.44,0,0,0-8.51-4.44,14.57,14.57,0,1,0-14.47,0A25.44,25.44,0,0,0,0,51.53a1.52,1.52,0,0,0,.12.59c.46,1.08,3.83,6.5,25.27,6.5,15.09,0,21.22-2.68,23.7-4.65,1.7.11,3.52.16,5.43.16,17.83,0,20.68-4.59,21.07-5.51A1.71,1.71,0,0,0,75.7,48,21.21,21.21,0,0,0,61.11,27.91ZM45.25,17.58a9.27,9.27,0,1,1,9.27,9.27A9.27,9.27,0,0,1,45.25,17.58Zm-31.42-3A11.57,11.57,0,1,1,25.39,26.14,11.58,11.58,0,0,1,13.83,14.57ZM3,51.1a22.39,22.39,0,0,1,44.78,0c-.81.91-5.13,4.55-22.39,4.55C7.94,55.62,3.72,51.9,3,51.1Zm51.52,0c-1.3,0-2.55,0-3.74-.07A25.33,25.33,0,0,0,43.4,33.65,18.18,18.18,0,0,1,72.7,47.56C71.94,48.34,68.25,51.13,54.52,51.13Z"/></svg>