<svg id="Capa_1" data-name="Capa 1" xmlns="http://www.w3.org/2000/svg" viewBox="0 0 54.54 58.64"><defs><style>.cls-1{fill:#fff;}</style></defs><path class="cls-1" d="M12.12,11.19a2.67,2.67,0,1,0,2.66,2.67A2.67,2.67,0,0,0,12.12,11.19Z"/><path class="cls-1" d="M12.12,21.5a2.67,2.67,0,1,0,2.66,2.67A2.66,2.66,0,0,0,12.12,21.5Z"/><path class="cls-1" d="M12.12,31.81a2.67,2.67,0,1,0,2.66,2.66A2.66,2.66,0,0,0,12.12,31.81Z"/><path class="cls-1" d="M45.08,12.36H18.62a1.5,1.5,0,0,0,0,3H45.08a1.5,1.5,0,0,0,0-3Z"/><path class="cls-1" d="M45.08,22.67H18.62a1.5,1.5,0,0,0,0,3H45.08a1.5,1.5,0,0,0,0-3Z"/><path class="cls-1" d="M45.08,33H18.62a1.5,1.5,0,0,0,0,3H45.08a1.5,1.5,0,0,0,0-3Z"/><path class="cls-1" d="M12.12,42.12a2.67,2.67,0,1,0,2.66,2.66A2.66,2.66,0,0,0,12.12,42.12Z"/><path class="cls-1" d="M45.08,43.28H18.62a1.5,1.5,0,0,0,0,3H45.08a1.5,1.5,0,0,0,0-3Z"/><path class="cls-1" d="M48.93,0H5.61A5.61,5.61,0,0,0,0,5.61V53a5.61,5.61,0,0,0,5.61,5.61H48.93A5.62,5.62,0,0,0,54.54,53V5.61A5.61,5.61,0,0,0,48.93,0Zm2.61,53a2.61,2.61,0,0,1-2.61,2.61H5.61A2.61,2.61,0,0,1,3,53V5.61A2.61,2.61,0,0,1,5.61,3H48.93a2.61,2.61,0,0,1,2.61,2.61Z"/></svg>