<svg id="Capa_1" data-name="Capa 1" xmlns="http://www.w3.org/2000/svg" viewBox="0 0 62.64 59.15"><defs><style>.cls-1{fill:#724e94;}</style></defs><path class="cls-1" d="M61.85,29.4,33.22.76a2.76,2.76,0,0,0-3.8,0l-13,13V8.63a1.5,1.5,0,1,0-3,0v8.14L.79,29.4A2.68,2.68,0,0,0,2.69,34H9.48V56.47a2.69,2.69,0,0,0,2.69,2.68H24.68a2.68,2.68,0,0,0,2.68-2.68V40h7.92V56.47A2.69,2.69,0,0,0,38,59.15h12.5a2.69,2.69,0,0,0,2.69-2.68V34H60a2.68,2.68,0,0,0,1.9-4.58Zm-9,1.58a2.68,2.68,0,0,0-2.68,2.69V56.15H38.28V39.64A2.68,2.68,0,0,0,35.6,37H27.05a2.69,2.69,0,0,0-2.69,2.68V56.15H12.48V33.67A2.68,2.68,0,0,0,9.8,31H3.45L31.32,3.11,59.2,31Z"/></svg>