<svg id="Capa_1" data-name="Capa 1" xmlns="http://www.w3.org/2000/svg" viewBox="0 0 63.25 67.67"><defs><style>.cls-1{fill:#fff;}</style></defs><path class="cls-1" d="M12.12,20.22a2.67,2.67,0,1,0,2.66,2.66A2.66,2.66,0,0,0,12.12,20.22Z"/><path class="cls-1" d="M12.12,30.53a2.66,2.66,0,1,0,2.66,2.66A2.66,2.66,0,0,0,12.12,30.53Z"/><path class="cls-1" d="M12.12,40.84a2.66,2.66,0,1,0,2.66,2.66A2.66,2.66,0,0,0,12.12,40.84Z"/><path class="cls-1" d="M45.08,31.69H18.62a1.5,1.5,0,0,0,0,3H45.08a1.5,1.5,0,1,0,0-3Z"/><path class="cls-1" d="M45.08,42H18.62a1.5,1.5,0,0,0,0,3H45.08a1.5,1.5,0,0,0,0-3Z"/><path class="cls-1" d="M12.12,51.15a2.66,2.66,0,1,0,2.66,2.66A2.66,2.66,0,0,0,12.12,51.15Z"/><path class="cls-1" d="M45.08,52.31H18.62a1.5,1.5,0,0,0,0,3H45.08a1.5,1.5,0,0,0,0-3Z"/><path class="cls-1" d="M18.62,21.38a1.5,1.5,0,0,0,0,3H37.27a16.14,16.14,0,0,1-2-3Z"/><path class="cls-1" d="M51.54,62.06a2.61,2.61,0,0,1-2.61,2.61H5.6A2.61,2.61,0,0,1,3,62.06V14.63A2.61,2.61,0,0,1,5.6,12H33.45a16.28,16.28,0,0,1,.61-3H5.6A5.6,5.6,0,0,0,0,14.63V62.06a5.61,5.61,0,0,0,5.6,5.61H48.93a5.62,5.62,0,0,0,5.61-5.61V29.41a16.64,16.64,0,0,1-3,.62Z"/><path class="cls-1" d="M54.25,12.28H51V9a1.5,1.5,0,0,0-3,0v3.28H44.71a1.5,1.5,0,0,0,0,3H48v3.27a1.5,1.5,0,1,0,3,0V15.28h3.27a1.5,1.5,0,0,0,0-3Z"/><path class="cls-1" d="M49.48,0A13.78,13.78,0,1,0,63.25,13.78,13.79,13.79,0,0,0,49.48,0Zm0,24.55A10.78,10.78,0,1,1,60.25,13.78,10.79,10.79,0,0,1,49.48,24.55Z"/></svg>