<svg width="15" height="25" viewBox="0 0 15 25" fill="none" xmlns="http://www.w3.org/2000/svg">
<path d="M1.41169 13.9134C0.631765 13.1325 0.631764 11.8675 1.41169 11.0866L11.0677 1.41912C12.3273 0.158037 14.4828 1.05011 14.4828 2.83249L14.4828 22.1675C14.4828 23.9499 12.3273 24.842 11.0677 23.5809L1.41169 13.9134Z" fill="#724D93"/>
<path d="M1.41169 13.9134C0.631765 13.1325 0.631764 11.8675 1.41169 11.0866L11.0677 1.41912C12.3273 0.158037 14.4828 1.05011 14.4828 2.83249L14.4828 22.1675C14.4828 23.9499 12.3273 24.842 11.0677 23.5809L1.41169 13.9134Z" fill="#724D93"/>
<path d="M1.41169 13.9134C0.631765 13.1325 0.631764 11.8675 1.41169 11.0866L11.0677 1.41912C12.3273 0.158037 14.4828 1.05011 14.4828 2.83249L14.4828 22.1675C14.4828 23.9499 12.3273 24.842 11.0677 23.5809L1.41169 13.9134Z" fill="#724D93"/>
<path d="M1.41169 13.9134C0.631765 13.1325 0.631764 11.8675 1.41169 11.0866L11.0677 1.41912C12.3273 0.158037 14.4828 1.05011 14.4828 2.83249L14.4828 22.1675C14.4828 23.9499 12.3273 24.842 11.0677 23.5809L1.41169 13.9134Z" fill="#724D93"/>
</svg>
