<svg width="15" height="25" viewBox="0 0 15 25" fill="none" xmlns="http://www.w3.org/2000/svg">
<path d="M13.7377 11.0866C14.5176 11.8675 14.5176 13.1325 13.7377 13.9134L4.08171 23.5809C2.82213 24.842 0.666656 23.9499 0.666656 22.1675L0.666656 2.83249C0.666656 1.05011 2.82212 0.158035 4.08171 1.41912L13.7377 11.0866Z" fill="#724D93"/>
<path d="M13.7377 11.0866C14.5176 11.8675 14.5176 13.1325 13.7377 13.9134L4.08171 23.5809C2.82213 24.842 0.666656 23.9499 0.666656 22.1675L0.666656 2.83249C0.666656 1.05011 2.82212 0.158035 4.08171 1.41912L13.7377 11.0866Z" fill="#724D93"/>
<path d="M13.7377 11.0866C14.5176 11.8675 14.5176 13.1325 13.7377 13.9134L4.08171 23.5809C2.82213 24.842 0.666656 23.9499 0.666656 22.1675L0.666656 2.83249C0.666656 1.05011 2.82212 0.158035 4.08171 1.41912L13.7377 11.0866Z" fill="#724D93"/>
<path d="M13.7377 11.0866C14.5176 11.8675 14.5176 13.1325 13.7377 13.9134L4.08171 23.5809C2.82213 24.842 0.666656 23.9499 0.666656 22.1675L0.666656 2.83249C0.666656 1.05011 2.82212 0.158035 4.08171 1.41912L13.7377 11.0866Z" fill="#724D93"/>
</svg>
