<svg width="14" height="25" viewBox="0 0 14 25" fill="none" xmlns="http://www.w3.org/2000/svg">
<path d="M13.071 11.0866C13.8509 11.8675 13.8509 13.1325 13.071 13.9134L3.41497 23.5809C2.15538 24.842 -9.21488e-05 23.9499 -9.21488e-05 22.1675L-9.21488e-05 2.83249C-9.21488e-05 1.05011 2.15538 0.158035 3.41496 1.41912L13.071 11.0866Z" fill="#BEBDBF"/>
<path d="M13.071 11.0866C13.8509 11.8675 13.8509 13.1325 13.071 13.9134L3.41497 23.5809C2.15538 24.842 -9.21488e-05 23.9499 -9.21488e-05 22.1675L-9.21488e-05 2.83249C-9.21488e-05 1.05011 2.15538 0.158035 3.41496 1.41912L13.071 11.0866Z" fill="#BEBDBF"/>
<path d="M13.071 11.0866C13.8509 11.8675 13.8509 13.1325 13.071 13.9134L3.41497 23.5809C2.15538 24.842 -9.21488e-05 23.9499 -9.21488e-05 22.1675L-9.21488e-05 2.83249C-9.21488e-05 1.05011 2.15538 0.158035 3.41496 1.41912L13.071 11.0866Z" fill="#BEBDBF"/>
</svg>
