<svg id="Capa_1" data-name="Capa 1" xmlns="http://www.w3.org/2000/svg" viewBox="0 0 196.75 101.81"><defs><style>.cls-1,.cls-2,.cls-3{fill:none;stroke:#724e94;stroke-miterlimit:10;}.cls-1,.cls-3{stroke-linecap:round;}.cls-1,.cls-2{stroke-width:3px;}.cls-3{stroke-width:2.5px;}</style></defs><rect class="cls-1" x="76.43" y="19.92" width="37.99" height="12.45" rx="0.88"/><rect class="cls-1" x="114.42" y="19.92" width="37.99" height="12.45" rx="0.88"/><rect class="cls-1" x="57.44" y="44.98" width="37.99" height="12.45" rx="0.88"/><rect class="cls-1" x="95.43" y="44.98" width="37.99" height="12.45" rx="0.88"/><path class="cls-1" d="M142.94,57.43H134.3a.89.89,0,0,1-.89-.88V45.87a.89.89,0,0,1,.89-.89h18.43"/><rect class="cls-1" x="57.44" y="32.54" width="37.99" height="12.45" rx="0.88"/><rect class="cls-1" x="95.43" y="32.54" width="37.99" height="12.45" rx="0.88"/><path class="cls-1" d="M152.73,45H134.3a.88.88,0,0,1-.89-.88V33.42a.89.89,0,0,1,.89-.88h36.21a.89.89,0,0,1,.89.88v9.69"/><line class="cls-1" x1="8.98" y1="50.75" x2="8.98" y2="29.48"/><line class="cls-1" x1="40.65" y1="30.36" x2="40.65" y2="57.45"/><rect class="cls-1" x="11.44" y="11.01" width="27.23" height="11.8" rx="2.15"/><path class="cls-1" d="M12.47,29.48H6.91a2.15,2.15,0,0,1-2.15-2.15V25a2.15,2.15,0,0,1,2.15-2.15H43.19A2.15,2.15,0,0,1,45.34,25v2.37a2.15,2.15,0,0,1-2.15,2.15H21.85"/><path class="cls-2" d="M41.12,57.45H142.94a2,2,0,0,0,1.61-.84L153.46,44a2,2,0,0,1,1.62-.84h38.19A2,2,0,0,1,195,46L166,99.28a2,2,0,0,1-1.73,1H13.05a2,2,0,0,1-1.74-2.92l5.35-10a2,2,0,0,0-.06-2L1.69,53.56a2,2,0,0,1,1.8-2.82l28.48,0a2,2,0,0,1,1.61.84l3.51,5a2,2,0,0,0,1.62.84h2.41"/><line class="cls-1" x1="17.38" y1="86.46" x2="37.13" y2="86.46"/><line class="cls-1" x1="59.82" y1="86.46" x2="172.89" y2="86.46"/><line class="cls-1" x1="25.05" y1="1.5" x2="25.05" y2="11.01"/><circle class="cls-3" cx="162.61" cy="65.31" r="4.8"/></svg>