<svg id="Capa_1" data-name="Capa 1" xmlns="http://www.w3.org/2000/svg" viewBox="0 0 216.65 113.43"><defs><style>.cls-1{fill:#724e94;}</style></defs><path class="cls-1" d="M215.92,47.76a5.09,5.09,0,0,0-4.43-2.52H190.21V37.71a3.46,3.46,0,0,0-3.46-3.46H169.56V23.91a3.38,3.38,0,0,0-3.38-3.38H126.65a3.17,3.17,0,0,0-.88.13,3.3,3.3,0,0,0-.89-.13H85.35A3.39,3.39,0,0,0,82,23.91V34.25H64.7a3.38,3.38,0,0,0-3.38,3.38V49.39a3.3,3.3,0,0,0,.13.89,3.17,3.17,0,0,0-.13.88v9.67H48.56V39.69a5.34,5.34,0,0,0,5.11-5.31V28.5a5.34,5.34,0,0,0-5.34-5.33H46.41V15.48a5.15,5.15,0,0,0-5.15-5.14H31.61V3a3,3,0,0,0-6,0v7.34H16a5.15,5.15,0,0,0-5.15,5.14v7.69H8.88A5.33,5.33,0,0,0,3.55,28.5v5.88a5.31,5.31,0,0,0,4.59,5.25V53.54h-3A5.15,5.15,0,0,0,.49,60.87L16.65,95.36,11,105.84a5.16,5.16,0,0,0,4.54,7.59H179.94a5.15,5.15,0,0,0,4.52-2.69L216,52.85A5.09,5.09,0,0,0,215.92,47.76Zm-30.71-2.52H170a5.17,5.17,0,0,0-4.21,2.18l-.25.36H148.92V39.25h36.29Zm-41.29-6v8.53h-36.3V39.25Zm-36.3,13.53h36.3v8h-36.3Zm48.71,8h-7.41v-8H162Zm8.23-26.77H128.27V25.53h36.29ZM87,25.53h36.3v8.53H87ZM66.32,39.25h36.3v8.53H66.32Zm0,13.53h36.3v8H66.32ZM16.8,16.34H40.41v6.83H16.8ZM14.14,39.71h.79a3,3,0,0,0,0-6H9.55V29.17H47.67v4.54H25.12a3,3,0,1,0,0,6H42.56V58.94l-2.23-3.16a5.14,5.14,0,0,0-4.2-2.19l-22,0Zm173.5,52.66H66.41a3,3,0,0,0,0,6h118l-4.94,9.06H17l4.87-9.06H41.74a3,3,0,1,0,0-6H21.87L6.49,59.53l29.19.06,3.56,5.06a5.14,5.14,0,0,0,4.21,2.18H156.77A5.14,5.14,0,0,0,161,64.65l9.43-13.41h39.66Z"/><path class="cls-1" d="M178.16,79.59a7.22,7.22,0,1,0-7.22-7.21A7.23,7.23,0,0,0,178.16,79.59Zm0-10.43a3.22,3.22,0,1,1-3.22,3.22A3.22,3.22,0,0,1,178.16,69.16Z"/></svg>