<svg id="Capa_1" data-name="Capa 1" xmlns="http://www.w3.org/2000/svg" viewBox="0 0 211.7 109.23"><defs><style>.cls-1{fill:#724e94;}</style></defs><path class="cls-1" d="M9.4,76.1h142a9.41,9.41,0,0,0,9.4-9.39V9.4a9.41,9.41,0,0,0-9.4-9.4H9.4A9.41,9.41,0,0,0,0,9.4V66.71A9.41,9.41,0,0,0,9.4,76.1ZM6,9.4A3.4,3.4,0,0,1,9.4,6h142a3.4,3.4,0,0,1,3.4,3.4V66.71a3.4,3.4,0,0,1-3.4,3.39H9.4A3.4,3.4,0,0,1,6,66.71Z"/><path class="cls-1" d="M27.26,58.8a3,3,0,0,0,3-3V20.31a3,3,0,0,0-6,0V55.8A3,3,0,0,0,27.26,58.8Z"/><path class="cls-1" d="M54.11,58.8a3,3,0,0,0,3-3V20.31a3,3,0,0,0-6,0V55.8A3,3,0,0,0,54.11,58.8Z"/><path class="cls-1" d="M81,58.8a3,3,0,0,0,3-3V20.31a3,3,0,0,0-6,0V55.8A3,3,0,0,0,81,58.8Z"/><path class="cls-1" d="M107.8,58.8a3,3,0,0,0,3-3V20.31a3,3,0,1,0-6,0V55.8A3,3,0,0,0,107.8,58.8Z"/><path class="cls-1" d="M134.64,58.8a3,3,0,0,0,3-3V20.31a3,3,0,0,0-6,0V55.8A3,3,0,0,0,134.64,58.8Z"/><path class="cls-1" d="M210.34,38l-14-18.89a7,7,0,0,0-5.6-2.83H169.45a3,3,0,0,0,0,6h21.34a1,1,0,0,1,.78.4l4.18,5.67H183.88a5.38,5.38,0,0,0-5.37,5.37v14.4a5.37,5.37,0,0,0,5.37,5.36H205.7V63.65h-6.49a3,3,0,1,0,0,6h6.49v15.6a1,1,0,0,1-1,1h-3.61a19.68,19.68,0,0,1,1.45,6h2.16a7,7,0,0,0,7-7V42.14A6.94,6.94,0,0,0,210.34,38Zm-25.83,9.48V34.35h15.67l5.33,7.21a1,1,0,0,1,.19.58v5.34Z"/><path class="cls-1" d="M1.05,89.22a3,3,0,0,0,3,3h5a19.39,19.39,0,0,1,1.45-6H4.05A3,3,0,0,0,1.05,89.22Z"/><path class="cls-1" d="M80.44,92.22h82.82a19.4,19.4,0,0,1,1.46-6H79A19.68,19.68,0,0,1,80.44,92.22Z"/><path class="cls-1" d="M28.7,78.52A15.36,15.36,0,1,0,44.06,93.87,15.37,15.37,0,0,0,28.7,78.52Zm0,24.71a9.36,9.36,0,1,1,9.36-9.36A9.37,9.37,0,0,1,28.7,103.23Z"/><path class="cls-1" d="M60.79,78.52A15.36,15.36,0,1,0,76.14,93.87,15.37,15.37,0,0,0,60.79,78.52Zm0,24.71a9.36,9.36,0,1,1,9.35-9.36A9.37,9.37,0,0,1,60.79,103.23Z"/><path class="cls-1" d="M182.92,78.52a15.36,15.36,0,1,0,15.35,15.35A15.37,15.37,0,0,0,182.92,78.52Zm0,24.71a9.36,9.36,0,1,1,9.35-9.36A9.37,9.37,0,0,1,182.92,103.23Z"/></svg>