<svg id="Capa_1" data-name="Capa 1" xmlns="http://www.w3.org/2000/svg" viewBox="0 0 216.65 106.02"><defs><style>.cls-1{fill:none;stroke:#724e94;stroke-linecap:round;stroke-miterlimit:10;stroke-width:6px;}.cls-2{fill:#724e94;}</style></defs><path class="cls-1" d="M213.33,48h-20a1.52,1.52,0,0,1-1.11-.49l-6.56-7.2a1.5,1.5,0,0,1,1.11-2.51h19.12"/><path class="cls-2" d="M80.91,86.91a1.13,1.13,0,0,0-.18,0c-1.5,0-2.42,1.55-2.42,4s.92,4,2.42,4a1.13,1.13,0,0,0,.18,0v0l4.81-8H80.91Z"/><path class="cls-2" d="M87.61,76.26l-.18,0c-1.49,0-2.42,1.54-2.42,4s.93,4,2.42,4a1,1,0,0,0,.18,0h0l4.82-8H87.61Z"/><path class="cls-2" d="M100.17,65.61H95.35l-.18,0c-1.5,0-2.42,1.54-2.42,4s.92,4,2.42,4l.18,0Z"/><path class="cls-2" d="M106.18,20h-.11c-.94,0-1.52-1-1.52-2.53s.58-2.53,1.52-2.53l.11,0h0l3,5.05h-3Z"/><path class="cls-2" d="M110.4,26.66l-.11,0c-.94,0-1.52-1-1.52-2.53s.58-2.53,1.52-2.53h.11l3,5h-3Z"/><path class="cls-1" d="M45.92,28.3,23.05,8.47l-1.3-1.12A14,14,0,0,0,14,4L4.17,3a1.06,1.06,0,0,0-1,1.65L19.52,28.3"/><path class="cls-1" d="M141.54,28.3l-10-8.71a34.12,34.12,0,0,0-18.9-8.15L109,11.07a1.65,1.65,0,0,0-1.52,2.57L117.4,28"/><path class="cls-1" d="M149.45,63.07c5.9.28,11.75.48,17.44.6,7,.14,42.12,2.63,46.44-12.4,1.06-3.71-.57-6.8-3.92-10.43-8.55-9.24-22.08-11.59-31.2-12.24l-14.62-.3H23.88c-10.63.26-12.45.19-6.63,14.62"/><path class="cls-1" d="M70.64,56.1c9.58,1.31,22.17,2.73,36.08,4"/><path class="cls-1" d="M54.19,52.84c-9.92-1.9-17.89-3.78-23.85-5.4"/><path class="cls-1" d="M146,66.09,119.56,89a56.11,56.11,0,0,1-31.1,13.42l-6,.6A2.7,2.7,0,0,1,80,98.78l29.93-43.32a5,5,0,0,1,4.14-2.18h43.45a1.21,1.21,0,0,1,.78,2.12L146,66.09"/><line class="cls-1" x1="57.4" y1="41.29" x2="62.58" y2="41.29"/><line class="cls-1" x1="89.49" y1="41.29" x2="94.67" y2="41.29"/><line class="cls-1" x1="121.69" y1="41.29" x2="126.64" y2="41.29"/><line class="cls-1" x1="153.78" y1="41.29" x2="158.73" y2="41.29"/><path class="cls-1" d="M20.5,39.72H37.59a.47.47,0,0,1,.31.83L22.66,53.76A22,22,0,0,1,10.42,59l-2.34.24a1.06,1.06,0,0,1-1-1.66l11.77-17A2,2,0,0,1,20.5,39.72Z"/></svg>