<svg id="Capa_1" data-name="Capa 1" xmlns="http://www.w3.org/2000/svg" viewBox="0 0 59.09 58.5"><defs><style>.cls-1{fill:#fff;}</style></defs><path class="cls-1" d="M33.54,58.5h-8a1.49,1.49,0,0,1-.55-.1A4.71,4.71,0,0,1,21,53.67c0-.74,0-1.48,0-2.22V49.89l-.12,0-.09,0c-.89.9-1.77,1.77-2.66,2.63a5,5,0,0,1-3.06,1.45,4.78,4.78,0,0,1-3.8-1.36c-1.05-1-2.08-2-3.1-3l-.78-.78c-.53-.52-1.08-1.06-1.6-1.65a4.63,4.63,0,0,1-1.19-2.86,4.57,4.57,0,0,1,.79-2.81,7.23,7.23,0,0,1,1-1.15l.42-.43C7.38,39.21,8,38.6,8.64,38l.19-.16-.1-.19H5a5.79,5.79,0,0,1-1.24-.12,4.63,4.63,0,0,1-3-2.05,4.93,4.93,0,0,1-.7-1.84A1.55,1.55,0,0,1,0,33.14V25.33a1.62,1.62,0,0,1,.1-.54c0-.16.06-.3.1-.45a4.67,4.67,0,0,1,4-3.48c.35,0,.69-.05,1-.06h.66c.59,0,1.21,0,1.84,0l.35,0a5.07,5.07,0,0,0,.55,0h.11l0-.09a.36.36,0,0,1,0-.1l-.55-.54L7.16,19l-.35-.34a10.64,10.64,0,0,1-1.19-1.29,4.55,4.55,0,0,1-1-3.17A4.72,4.72,0,0,1,5.8,11.43c.31-.36.64-.69,1-1l.31-.3L9.94,7.28l.39-.39A16.35,16.35,0,0,1,11.61,5.7a4.78,4.78,0,0,1,6.18,0,32.77,32.77,0,0,1,2.5,2.42l.27.29a2.44,2.44,0,0,0,.26.28L21,8.61V8c0-.66,0-1.31,0-2V5.73c0-.46,0-.93,0-1.4A4.7,4.7,0,0,1,24.31.27l.06,0A1.47,1.47,0,0,1,25.19,0H34a1.51,1.51,0,0,1,.91.31c.21.09.4.17.59.27a4.44,4.44,0,0,1,2.29,2.59A5.64,5.64,0,0,1,38.05,5V8.6l.2.08h0c.59-.6,1.18-1.18,1.78-1.77l.63-.62A6,6,0,0,1,42.52,5a4.69,4.69,0,0,1,3.83,0,6.32,6.32,0,0,1,1.83,1.33l1.76,1.75,2.24,2.22.25.24a8.71,8.71,0,0,1,1.2,1.37,4.56,4.56,0,0,1,.78,3.32A5,5,0,0,1,53,17.94l-.25.26c-.79.81-1.59,1.65-2.49,2.42l.11.19h1.18c.92,0,1.84,0,2.76,0a4.73,4.73,0,0,1,2.48.69,4.62,4.62,0,0,1,2,2.48,1.49,1.49,0,0,1,.31.91v8.73a1.49,1.49,0,0,1-.35,1,6.27,6.27,0,0,1-.28.58,4.5,4.5,0,0,1-2.16,2.07,5.62,5.62,0,0,1-2.32.44h-3.6c0,.07-.05.13-.08.19l2.06,2,.23.23a6.58,6.58,0,0,1,1.06,1.23,4.54,4.54,0,0,1,.13,5,6.81,6.81,0,0,1-1.1,1.32l-.13.13c-1.29,1.29-2.58,2.57-3.89,3.84l-.28.27a8.78,8.78,0,0,1-1.17,1,4.72,4.72,0,0,1-3.48.87A4.93,4.93,0,0,1,41,52.49L39.45,51l-1.08-1.07-.12-.12-.13.06-.08,0v3.25a7,7,0,0,1-.15,1.71,4.62,4.62,0,0,1-2.1,2.93,4.92,4.92,0,0,1-1.72.63A1.37,1.37,0,0,1,33.54,58.5Zm-7.69-3h7.36a1.77,1.77,0,0,1,.32,0,2.06,2.06,0,0,0,.71-.24A1.66,1.66,0,0,0,35,54.12a4.81,4.81,0,0,0,.06-1v-3.8a2.91,2.91,0,0,1,0-.4,2,2,0,0,1,1.4-1.66,3.3,3.3,0,0,0,.49-.19l.54-.21.41-.13a2.11,2.11,0,0,1,1.76.32,6.48,6.48,0,0,1,.84.74l1.05,1.05,1.5,1.48a2,2,0,0,0,1.1.55,1.81,1.81,0,0,0,1.32-.35,7,7,0,0,0,.78-.71l.32-.31c1.3-1.25,2.57-2.52,3.84-3.8l.15-.14a4.75,4.75,0,0,0,.63-.72A1.56,1.56,0,0,0,51.14,43a4.51,4.51,0,0,0-.65-.71L50.22,42c-.78-.8-1.58-1.58-2.39-2.35A2.06,2.06,0,0,1,47.42,37a2.19,2.19,0,0,0,.17-.41l.11-.25a2.3,2.3,0,0,1,2.43-1.63H54a2.67,2.67,0,0,0,1.11-.19,1.5,1.5,0,0,0,.73-.74,4.52,4.52,0,0,0,.23-.5.3.3,0,0,1,0-.1V25.37A1.73,1.73,0,0,1,56,25a1.68,1.68,0,0,0-.77-1,1.78,1.78,0,0,0-1-.23c-.9,0-1.8,0-2.69,0H49.78a2,2,0,0,1-2.05-1.58,2.7,2.7,0,0,1-.51-2.16,3,3,0,0,1,1.05-1.69c.8-.69,1.54-1.46,2.32-2.26l.26-.27a2,2,0,0,0,.6-1.1,1.55,1.55,0,0,0-.31-1.17,5.74,5.74,0,0,0-.8-.88l-.28-.27c-.74-.75-1.48-1.48-2.23-2.22L46.07,8.46a3.39,3.39,0,0,0-.93-.71,1.67,1.67,0,0,0-1.43,0,3.16,3.16,0,0,0-.92.69l-.64.63c-.71.7-1.43,1.41-2.13,2.13a2,2,0,0,1-2.48.46,2.65,2.65,0,0,0-.42-.18l-.37-.16-.23-.1a2.22,2.22,0,0,1-1.46-2.15V5a2.67,2.67,0,0,0-.13-.88,1.46,1.46,0,0,0-.82-.87L33.6,3l-.07,0h-8l-.36.12a1.69,1.69,0,0,0-1.15,1.44c0,.39,0,.77,0,1.16v.36c0,.65,0,1.29,0,1.94V9.13a2,2,0,0,1-1.66,2.15l-.07.06a2.72,2.72,0,0,1-3.26-.17,5.27,5.27,0,0,1-.75-.74c-.06-.08-.13-.15-.19-.22A30.28,30.28,0,0,0,15.83,8a1.81,1.81,0,0,0-1.21-.44A1.88,1.88,0,0,0,13.5,8c-.35.29-.68.63-1,1L12,9.42,9.21,12.23l-.33.32c-.27.27-.55.54-.8.83a1.77,1.77,0,0,0-.46,1A1.63,1.63,0,0,0,8,15.57a9.76,9.76,0,0,0,.9.95l.38.37L10.37,18l1,1a2,2,0,0,1,.37,2.49,3,3,0,0,1-3,2.43c-.29,0-.56,0-.83,0l-.29,0c-.51,0-1,0-1.59,0H5.31c-.25,0-.49,0-.74,0A1.67,1.67,0,0,0,3.1,25.09L3,25.38a1.45,1.45,0,0,1,0,.29v7.15a1.88,1.88,0,0,1,0,.33,1.86,1.86,0,0,0,.26.74,1.66,1.66,0,0,0,1.13.74,3.36,3.36,0,0,0,.62,0H5.7c1.15,0,2.3,0,3.45,0a3.39,3.39,0,0,1,.45,0,2,2,0,0,1,1.76,1.52,1.62,1.62,0,0,0,.15.29l.1.19a2.56,2.56,0,0,1-.19,2.76,5,5,0,0,1-.83.87c-.56.47-1.08,1-1.63,1.57l-.43.45a3.77,3.77,0,0,0-.59.67,1.74,1.74,0,0,0-.32,1,1.69,1.69,0,0,0,.46,1c.44.51.93,1,1.44,1.49l.8.8c1,1,2,2,3,3a1.79,1.79,0,0,0,1.47.56,2,2,0,0,0,1.24-.62q1.51-1.47,3-3a2.28,2.28,0,0,1,.56-.45,1.89,1.89,0,0,1,1.84-.06,4.17,4.17,0,0,0,.57.26l.64.28A2.31,2.31,0,0,1,24,49.45v2c0,.72,0,1.44,0,2.17A1.78,1.78,0,0,0,24.59,55a1.7,1.7,0,0,0,1,.46ZM37.3,50.16h0ZM21.38,50ZM8.44,36.9h0Zm50.43-2.63,0,.06A.14.14,0,0,1,58.87,34.27ZM3,33.07H3Zm8.7-11.75Zm-2.9-.49ZM9.08,20h0ZM38.06,9h0ZM39,9h0ZM35.48,1.5Zm0,0ZM29.54,40.71h0a11.51,11.51,0,0,1-8.24-3.44,11.37,11.37,0,0,1,.12-16.16,11.55,11.55,0,0,1,8.14-3.33h.12a11.47,11.47,0,1,1-.13,22.93Zm0-19.93a8.56,8.56,0,0,0-6,2.47,8.38,8.38,0,0,0-.09,11.91,8.52,8.52,0,1,0,6.22-14.38Z"/></svg>