<svg id="Capa_1" data-name="Capa 1" xmlns="http://www.w3.org/2000/svg" viewBox="0 0 193.76 97.23"><defs><style>.cls-1{fill:#724e94;}</style></defs><path class="cls-1" d="M10.62,78.74H2.82a1.85,1.85,0,0,0,0,3.7h7A15.76,15.76,0,0,1,10.62,78.74Z"/><path class="cls-1" d="M146.75,60.71V7.76A7.78,7.78,0,0,0,139,0H7.76A7.77,7.77,0,0,0,0,7.76v53a7.77,7.77,0,0,0,7.76,7.76H139A7.78,7.78,0,0,0,146.75,60.71Zm-143,0V7.76A4.06,4.06,0,0,1,7.76,3.7H139a4.07,4.07,0,0,1,4.07,4.06v53A4.07,4.07,0,0,1,139,64.78H7.76A4.07,4.07,0,0,1,3.7,60.71Z"/><path class="cls-1" d="M24.26,16a1.84,1.84,0,0,0-1.84,1.85V50.63a1.85,1.85,0,1,0,3.69,0V17.84A1.85,1.85,0,0,0,24.26,16Z"/><path class="cls-1" d="M44.11,16a1.85,1.85,0,0,0-1.85,1.85V50.63a1.85,1.85,0,1,0,3.7,0V17.84A1.85,1.85,0,0,0,44.11,16Z"/><path class="cls-1" d="M64,16a1.85,1.85,0,0,0-1.85,1.85V50.63a1.85,1.85,0,1,0,3.7,0V17.84A1.85,1.85,0,0,0,64,16Z"/><path class="cls-1" d="M83.8,16A1.85,1.85,0,0,0,82,17.84V50.63a1.85,1.85,0,1,0,3.69,0V17.84A1.84,1.84,0,0,0,83.8,16Z"/><path class="cls-1" d="M103.64,16a1.85,1.85,0,0,0-1.85,1.85V50.63a1.85,1.85,0,1,0,3.7,0V17.84A1.85,1.85,0,0,0,103.64,16Z"/><path class="cls-1" d="M123.48,16a1.84,1.84,0,0,0-1.84,1.85V50.63a1.85,1.85,0,1,0,3.69,0V17.84A1.85,1.85,0,0,0,123.48,16Z"/><path class="cls-1" d="M71,82.44h83.11a15.76,15.76,0,0,1,.82-3.7H70.21A15.28,15.28,0,0,1,71,82.44Z"/><path class="cls-1" d="M192.68,33.81,179.79,16.36a5.53,5.53,0,0,0-4.43-2.24H152.7a1.85,1.85,0,1,0,0,3.7h22.66a1.8,1.8,0,0,1,1.46.74l5,6.71H169a4,4,0,0,0-4,4V42.61a4,4,0,0,0,4,4h21.09V57.89h-6.92a1.85,1.85,0,1,0,0,3.7h6.92V76.92a1.82,1.82,0,0,1-1.82,1.82h-3.33a15.76,15.76,0,0,1,.82,3.7h2.51a5.52,5.52,0,0,0,5.52-5.52V37.09A5.51,5.51,0,0,0,192.68,33.81ZM169,43a.34.34,0,0,1-.34-.34V29.3A.35.35,0,0,1,169,29h15.54l5.2,7a1.84,1.84,0,0,1,.35,1.09V43Z"/><path class="cls-1" d="M25.6,70.7A13.27,13.27,0,1,0,38.86,84,13.28,13.28,0,0,0,25.6,70.7Zm0,22.83A9.57,9.57,0,1,1,35.17,84,9.58,9.58,0,0,1,25.6,93.53Z"/><path class="cls-1" d="M55.24,70.7A13.27,13.27,0,1,0,68.51,84,13.28,13.28,0,0,0,55.24,70.7Zm0,22.83A9.57,9.57,0,1,1,64.81,84,9.58,9.58,0,0,1,55.24,93.53Z"/><path class="cls-1" d="M169.93,70.7A13.27,13.27,0,1,0,183.2,84,13.28,13.28,0,0,0,169.93,70.7Zm0,22.83A9.57,9.57,0,1,1,179.5,84,9.58,9.58,0,0,1,169.93,93.53Z"/></svg>